<?xml version="1.0" standalone="no"?>
<!DOCTYPE svg PUBLIC "-//W3C//DTD SVG 20010904//EN"
 "http://www.w3.org/TR/2001/REC-SVG-20010904/DTD/svg10.dtd">
<svg version="1.0" xmlns="http://www.w3.org/2000/svg"
 width="714.000000pt" height="343.000000pt" viewBox="0 0 714.000000 343.000000"
 preserveAspectRatio="xMidYMid meet">

<g transform="translate(0.000000,343.000000) scale(0.100000,-0.100000)"
fill="#000000" stroke="none">
<path d="M1280 2415 l0 -65 320 0 320 0 0 65 0 65 -320 0 -320 0 0 -65z m600
0 c0 -13 -38 -15 -280 -15 -242 0 -280 2 -280 15 0 13 38 15 280 15 242 0 280
-2 280 -15z"/>
<path d="M2040 2415 l0 -65 270 0 271 0 -3 63 -3 62 -267 3 -268 2 0 -65z
m490 0 c0 -13 -31 -15 -220 -15 -189 0 -220 2 -220 15 0 13 31 15 220 15 189
0 220 -2 220 -15z"/>
<path d="M2690 2225 l0 -255 60 0 60 0 0 255 0 255 -60 0 -60 0 0 -255z m80
-5 c0 -203 -1 -210 -20 -210 -19 0 -20 7 -20 210 0 203 1 210 20 210 19 0 20
-7 20 -210z"/>
<path d="M3413 2450 c-120 -28 -200 -138 -210 -291 -9 -130 23 -225 99 -296
53 -48 102 -66 183 -67 111 -1 188 46 231 139 22 46 22 50 7 68 -27 29 -55 17
-87 -39 -35 -63 -85 -94 -148 -94 -65 0 -127 35 -162 94 -27 42 -31 59 -34
142 -3 73 0 105 13 140 35 93 93 134 187 134 67 0 110 -25 138 -80 17 -33 26
-40 50 -40 62 0 55 65 -15 133 -58 57 -159 80 -252 57z"/>
<path d="M3997 2444 c-68 -21 -138 -93 -167 -169 -28 -76 -31 -195 -7 -277 38
-128 139 -203 273 -202 122 1 221 72 261 187 26 77 24 224 -5 298 -55 138
-210 210 -355 163z m194 -87 c74 -50 103 -127 97 -259 -4 -74 -8 -93 -34 -135
-51 -83 -150 -116 -237 -79 -156 65 -171 389 -22 473 56 32 149 32 196 0z"/>
<path d="M3017 2443 c-4 -3 -7 -147 -7 -319 0 -302 1 -313 20 -319 10 -3 28
-1 40 5 19 10 20 19 20 313 0 222 -3 306 -12 315 -13 13 -50 16 -61 5z"/>
<path d="M4501 2436 c-8 -9 -11 -101 -9 -316 3 -276 5 -304 21 -314 12 -8 22
-8 35 0 15 10 17 35 17 276 l0 265 34 -61 c79 -144 285 -467 303 -477 29 -16
67 -2 78 27 14 35 13 570 0 595 -15 26 -56 25 -71 -3 -9 -17 -10 -87 -6 -268
l7 -245 -32 55 c-56 98 -250 414 -275 448 -19 25 -31 32 -57 32 -19 0 -39 -6
-45 -14z"/>
<path d="M1430 2060 l0 -260 65 0 65 0 0 195 0 195 305 0 305 0 0 65 0 65
-370 0 -370 0 0 -260z m700 195 c0 -13 -41 -15 -310 -15 l-310 0 0 -195 c0
-167 -2 -195 -15 -195 -13 0 -15 30 -15 210 l0 210 325 0 c282 0 325 -2 325
-15z"/>
<path d="M2204 2306 c-3 -7 -4 -35 -2 -62 l3 -49 163 -3 162 -2 0 -255 0 -255
65 0 65 0 -2 318 -3 317 -223 3 c-183 2 -223 0 -228 -12z m406 -311 c0 -236
-2 -275 -15 -275 -12 0 -15 38 -17 258 l-3 257 -162 3 c-136 2 -163 5 -163 17
0 13 28 15 180 15 l180 0 0 -275z"/>
<path d="M1280 1910 l0 -350 60 0 60 0 0 350 0 350 -60 0 -60 0 0 -350z m80 0
c0 -293 0 -300 -20 -300 -20 0 -20 7 -20 300 0 293 0 300 20 300 20 0 20 -7
20 -300z"/>
<path d="M1600 2095 l0 -65 180 0 180 0 0 65 0 65 -180 0 -180 0 0 -65z m320
0 c0 -13 -22 -15 -140 -15 -118 0 -140 2 -140 15 0 13 22 15 140 15 118 0 140
-2 140 -15z"/>
<path d="M2000 2095 l0 -65 185 0 185 0 0 -90 0 -90 60 0 60 0 0 155 0 155
-245 0 -245 0 0 -65z m450 -90 c0 -98 -1 -105 -20 -105 -19 0 -20 7 -20 90 l0
90 -185 0 c-158 0 -185 2 -185 15 0 13 29 15 205 15 l205 0 0 -105z"/>
<path d="M1760 1880 l0 -111 63 3 62 3 3 43 3 42 85 0 84 0 0 65 0 65 -150 0
-150 0 0 -110z m250 45 c0 -12 -16 -15 -85 -15 l-85 0 0 -45 c0 -33 -4 -45
-15 -45 -12 0 -15 13 -15 60 l0 60 100 0 c82 0 100 -3 100 -15z"/>
<path d="M2104 1977 c-3 -8 -4 -36 -2 -63 l3 -49 48 -3 47 -3 0 -80 0 -79 65
0 66 0 -3 143 -3 142 -108 3 c-85 2 -108 0 -113 -11z m176 -137 c0 -82 -3
-100 -15 -100 -12 0 -15 16 -15 85 l0 85 -50 0 c-38 0 -50 4 -50 15 0 12 14
15 65 15 l65 0 0 -100z"/>
<path d="M1600 1825 l0 -155 60 0 60 0 0 155 0 155 -60 0 -60 0 0 -155z m80 0
c0 -98 -1 -105 -20 -105 -19 0 -20 7 -20 105 0 98 1 105 20 105 19 0 20 -7 20
-105z"/>
<path d="M2690 1505 l0 -345 60 0 60 0 0 345 0 345 -60 0 -60 0 0 -345z m80 0
c0 -298 0 -305 -20 -305 -20 0 -20 7 -20 305 0 298 0 305 20 305 20 0 20 -7
20 -305z"/>
<path d="M2370 1590 l0 -210 -100 0 -100 0 0 -60 0 -60 160 0 160 0 0 270 0
270 -60 0 -60 0 0 -210z m80 -60 l0 -220 -120 0 c-100 0 -120 3 -120 15 0 12
18 15 100 15 l100 0 0 205 c0 198 1 205 20 205 19 0 20 -7 20 -220z"/>
<path d="M1437 1734 c-4 -4 -7 -148 -7 -321 l0 -313 205 0 205 0 0 60 0 60
-140 0 -140 0 -2 258 -3 257 -55 3 c-31 2 -59 0 -63 -4z m73 -299 l0 -255 140
0 c133 0 140 -1 140 -20 0 -19 -7 -20 -155 -20 l-155 0 0 275 c0 238 2 275 15
275 13 0 15 -35 15 -255z"/>
<path d="M1760 1575 l0 -145 100 0 100 0 0 60 0 60 -35 0 -34 0 -3 83 -3 82
-62 3 -63 3 0 -146z m82 13 l3 -83 38 -3 c24 -2 37 -8 37 -18 0 -10 -14 -14
-55 -14 l-55 0 0 100 c0 81 3 100 15 100 11 0 15 -18 17 -82z"/>
<path d="M2200 1600 l0 -50 -100 0 -100 0 0 -60 0 -60 165 0 165 0 0 110 0
110 -65 0 -65 0 0 -50z m80 -60 l0 -70 -115 0 c-94 0 -115 3 -115 15 0 11 20
15 98 17 l97 3 3 53 c2 37 7 52 18 52 11 0 14 -16 14 -70z"/>
<path d="M2987 1634 c-4 -4 -7 -162 -7 -351 l0 -343 60 0 60 0 0 290 0 290
183 2 182 3 0 55 0 55 -236 3 c-129 1 -238 -1 -242 -4z m433 -54 c0 -6 -68
-10 -185 -10 l-185 0 0 -295 c0 -190 -4 -295 -10 -295 -6 0 -10 108 -10 305
l0 305 195 0 c123 0 195 -4 195 -10z"/>
<path d="M3540 1290 l0 -350 55 0 55 0 0 290 0 289 133 3 132 3 0 55 0 55
-187 3 -188 2 0 -350z m330 290 c0 -6 -50 -10 -130 -10 l-130 0 0 -295 c0
-256 -2 -295 -15 -295 -13 0 -15 41 -15 305 l0 305 145 0 c90 0 145 -4 145
-10z"/>
<path d="M4090 1290 l0 -350 55 0 55 0 0 290 0 289 63 3 62 3 0 55 0 55 -117
3 -118 3 0 -351z m190 290 c0 -5 -28 -10 -62 -12 l-63 -3 -3 -292 c-1 -184 -6
-293 -12 -293 -6 0 -10 111 -10 305 l0 305 75 0 c41 0 75 -4 75 -10z"/>
<path d="M4670 1580 l0 -61 113 3 112 3 0 55 0 55 -112 3 -113 3 0 -61z m180
0 c0 -6 -30 -10 -70 -10 -40 0 -70 4 -70 10 0 6 30 10 70 10 40 0 70 -4 70
-10z"/>
<path d="M5177 1634 c-4 -4 -7 -56 -7 -116 l0 -108 60 0 60 0 0 55 0 54 128 3
127 3 0 55 0 55 -181 3 c-99 1 -183 -1 -187 -4z m323 -54 c0 -5 -54 -11 -127
-12 l-128 -3 -3 -57 c-4 -82 -22 -72 -22 12 l0 70 140 0 c84 0 140 -4 140 -10z"/>
<path d="M1600 1445 l0 -185 265 0 265 0 0 65 0 65 -205 0 -205 0 0 120 0 120
-60 0 -60 0 0 -185z m80 15 l0 -120 200 0 c171 0 200 -2 200 -15 0 -13 -31
-15 -220 -15 l-220 0 0 135 c0 128 1 135 20 135 19 0 20 -7 20 -120z"/>
<path d="M2530 1415 l0 -195 -320 0 -320 0 0 -60 0 -60 385 0 385 0 -2 253 -3
252 -62 3 -63 3 0 -196z m80 -65 l0 -210 -335 0 c-328 0 -335 0 -335 20 0 20
7 20 320 20 l320 0 0 190 c0 162 2 190 15 190 13 0 15 -30 15 -210z"/>
<path d="M4460 1425 l0 -55 -75 0 -75 0 0 -60 0 -60 130 0 130 0 0 115 0 115
-55 0 -55 0 0 -55z m70 -55 l0 -70 -90 0 c-53 0 -90 4 -90 10 0 6 32 10 75 10
l75 0 0 60 c0 47 3 60 15 60 12 0 15 -14 15 -70z"/>
<path d="M1280 1195 l0 -255 60 0 60 0 0 255 0 255 -60 0 -60 0 0 -255z m80
-5 c0 -203 -1 -210 -20 -210 -19 0 -20 7 -20 210 0 203 1 210 20 210 19 0 20
-7 20 -210z"/>
<path d="M3900 1230 l0 -180 -95 0 -95 0 0 -55 0 -55 150 0 150 0 0 235 0 235
-55 0 -55 0 0 -180z m60 -60 l0 -190 -100 0 c-82 0 -100 3 -100 15 0 12 17 15
90 15 l90 0 0 175 c0 110 4 175 10 175 6 0 10 -70 10 -190z"/>
<path d="M4670 1160 l0 -220 220 0 220 0 -2 213 -3 212 -100 0 -100 0 0 -55 0
-55 43 -3 42 -3 0 -100 0 -99 -105 0 -105 0 0 165 0 165 -55 0 -55 0 0 -220z
m70 5 l0 -166 148 3 147 3 3 148 3 147 -46 0 c-25 0 -45 5 -45 10 0 6 25 10
55 10 l55 0 0 -170 0 -170 -175 0 -175 0 0 175 c0 149 2 175 15 175 13 0 15
-25 15 -165z"/>
<path d="M3144 1356 c-3 -7 -4 -33 -2 -57 l3 -44 135 0 135 0 0 55 0 55 -133
3 c-107 2 -133 0 -138 -12z m226 -46 c0 -6 -37 -10 -90 -10 -53 0 -90 4 -90
10 0 6 37 10 90 10 53 0 90 -4 90 -10z"/>
<path d="M5334 1356 c-3 -7 -4 -33 -2 -57 l3 -44 135 0 135 0 0 55 0 55 -133
3 c-107 2 -133 0 -138 -12z m226 -46 c0 -6 -37 -10 -90 -10 -53 0 -90 4 -90
10 0 6 37 10 90 10 53 0 90 -4 90 -10z"/>
<path d="M5177 1203 c-4 -3 -7 -64 -7 -135 l0 -128 245 0 245 0 0 55 0 55
-185 0 -185 0 0 80 0 80 -53 0 c-30 0 -57 -3 -60 -7z m63 -118 l0 -75 185 0
c158 0 185 -2 185 -15 0 -13 -28 -15 -195 -15 l-195 0 0 90 c0 53 4 90 10 90
6 0 10 -32 10 -75z"/>
<path d="M4463 1177 c-24 -11 -43 -25 -43 -29 0 -18 103 -228 112 -228 14 0
88 40 88 48 0 13 -103 232 -109 231 -3 0 -25 -10 -48 -22z m70 -117 c22 -50
31 -80 23 -80 -13 0 -76 120 -76 145 0 34 19 11 53 -65z"/>
<path d="M1492 1008 l3 -63 295 0 295 0 3 63 3 62 -301 0 -301 0 3 -62z m548
2 c0 -19 -7 -20 -250 -20 -243 0 -250 1 -250 20 0 19 7 20 250 20 243 0 250
-1 250 -20z"/>
<path d="M2142 1008 l3 -63 333 -3 332 -2 0 65 0 65 -335 0 -336 0 3 -62z
m618 2 c0 -20 -7 -20 -285 -20 -278 0 -285 0 -285 20 0 20 7 20 285 20 278 0
285 0 285 -20z"/>
</g>
</svg>
